<svg width="64" height="64" viewBox="0 0 64 64" fill="none" xmlns="http://www.w3.org/2000/svg">
<g clip-path="url(#clip0_100_5916)">
<path d="M49 0H15C6.71573 0 0 6.71573 0 15V49C0 57.2843 6.71573 64 15 64H49C57.2843 64 64 57.2843 64 49V15C64 6.71573 57.2843 0 49 0Z" fill="#242938"/>
<path d="M32.0003 7.5C18.1948 7.5 7 18.6927 7 32.5003C7 43.546 14.1633 52.917 24.0967 56.2228C25.346 56.4543 25.8048 55.6805 25.8048 55.0202C25.8048 54.424 25.7815 52.4548 25.7708 50.3657C18.8158 51.878 17.3482 47.416 17.3482 47.416C16.2109 44.5262 14.5723 43.758 14.5723 43.758C12.3041 42.2062 14.7433 42.2383 14.7433 42.2383C17.2538 42.4145 18.5756 44.8145 18.5756 44.8145C20.8054 48.6365 24.4241 47.5315 25.8507 46.8927C26.0753 45.2767 26.723 44.174 27.438 43.5498C21.8851 42.9175 16.0478 40.7738 16.0478 31.1945C16.0478 28.465 17.0244 26.2348 18.6237 24.4841C18.3641 23.8544 17.5084 21.3116 18.8659 17.868C18.8659 17.868 20.9652 17.1961 25.7428 20.4307C27.737 19.8767 29.8755 19.5989 32.0003 19.5894C34.1248 19.5989 36.2653 19.8767 38.263 20.4307C43.0348 17.1961 45.1312 17.868 45.1312 17.868C46.492 21.3116 45.636 23.8544 45.3763 24.4841C46.9793 26.2348 47.9492 28.465 47.9492 31.1945C47.9492 40.7967 42.1007 42.911 36.5337 43.5298C37.4305 44.3058 38.2295 45.827 38.2295 48.1595C38.2295 51.5045 38.2005 54.1967 38.2005 55.0202C38.2005 55.6855 38.6505 56.465 39.9178 56.2195C49.8458 52.91 57 43.5423 57 32.5003C57 18.6927 45.8068 7.5 32.0003 7.5ZM16.3634 43.1133C16.3083 43.2375 16.1129 43.2747 15.9349 43.1895C15.7536 43.108 15.6517 42.9385 15.7105 42.814C15.7643 42.686 15.9601 42.6505 16.1411 42.7363C16.3228 42.8178 16.4263 42.9888 16.3634 43.1133ZM17.5931 44.2105C17.4739 44.3212 17.2408 44.2698 17.0827 44.095C16.9192 43.9207 16.8885 43.6878 17.0094 43.5755C17.1323 43.465 17.3584 43.5168 17.5223 43.691C17.6859 43.8675 17.7177 44.0987 17.5931 44.2105ZM18.4368 45.6145C18.2836 45.721 18.0331 45.6213 17.8783 45.3988C17.7251 45.1765 17.7251 44.91 17.8816 44.803C18.0368 44.6963 18.2836 44.7923 18.4405 45.013C18.5933 45.239 18.5933 45.5057 18.4368 45.6145ZM19.8636 47.2405C19.7265 47.3915 19.4347 47.351 19.221 47.1447C19.0025 46.9432 18.9416 46.6572 19.079 46.506C19.2177 46.3545 19.5112 46.3973 19.7265 46.6017C19.9434 46.8027 20.0097 47.091 19.8636 47.2405ZM21.7075 47.7892C21.6471 47.9852 21.366 48.0742 21.0828 47.991C20.8 47.9053 20.615 47.676 20.6721 47.478C20.7309 47.281 21.0133 47.1882 21.2985 47.2772C21.5808 47.3625 21.7663 47.5902 21.7075 47.7892ZM23.806 48.0223C23.8131 48.2283 23.573 48.3993 23.2757 48.403C22.9768 48.4097 22.7351 48.2428 22.7317 48.04C22.7317 47.8318 22.9665 47.6625 23.2654 47.6575C23.5626 47.6518 23.806 47.8172 23.806 48.0223ZM25.8675 47.9432C25.9032 48.1442 25.6968 48.351 25.4015 48.406C25.1112 48.459 24.8426 48.3348 24.8057 48.1353C24.7697 47.929 24.98 47.7225 25.2698 47.669C25.5655 47.6177 25.83 47.7388 25.8675 47.9432Z" fill="white"/>
</g>
<defs>
<clipPath id="clip0_100_5916">
<rect width="64" height="64" fill="white"/>
</clipPath>
</defs>
</svg>
