<svg width="16" height="16" viewBox="0 0 16 16" fill="none" xmlns="http://www.w3.org/2000/svg">
<path d="M8.00006 1.875C4.54869 1.875 1.75 4.67318 1.75 8.12506C1.75 10.8865 3.54083 13.2292 6.02417 14.0557C6.3365 14.1136 6.45119 13.9201 6.45119 13.7551C6.45119 13.606 6.44537 13.1137 6.44269 12.5914C4.70394 12.9695 4.33704 11.854 4.33704 11.854C4.05273 11.1316 3.64309 10.9395 3.64309 10.9395C3.07602 10.5516 3.68583 10.5596 3.68583 10.5596C4.31344 10.6036 4.64391 11.2036 4.64391 11.2036C5.20136 12.1591 6.10603 11.8829 6.46269 11.7232C6.51881 11.3192 6.68075 11.0435 6.8595 10.8874C5.47128 10.7294 4.01196 10.1934 4.01196 7.79862C4.01196 7.11625 4.25611 6.55869 4.65592 6.12101C4.59102 5.96359 4.37709 5.32791 4.71647 4.46701C4.71647 4.46701 5.24131 4.29903 6.43569 5.10766C6.93425 4.96918 7.46888 4.89974 8.00006 4.89736C8.53119 4.89974 9.06631 4.96918 9.56575 5.10766C10.7587 4.29903 11.2828 4.46701 11.2828 4.46701C11.623 5.32791 11.409 5.96359 11.3441 6.12101C11.7448 6.55869 11.9873 7.11625 11.9873 7.79862C11.9873 10.1992 10.5252 10.7277 9.13344 10.8824C9.35762 11.0764 9.55737 11.4567 9.55737 12.0399C9.55737 12.8761 9.55013 13.5492 9.55013 13.7551C9.55013 13.9214 9.66263 14.1163 9.97944 14.0549C12.4614 13.2275 14.25 10.8856 14.25 8.12506C14.25 4.67318 11.4517 1.875 8.00006 1.875ZM4.09085 10.7783C4.07708 10.8094 4.02823 10.8187 3.98373 10.7974C3.93839 10.777 3.91293 10.7346 3.92763 10.7035C3.94109 10.6715 3.99004 10.6626 4.03527 10.6841C4.08071 10.7044 4.10658 10.7472 4.09085 10.7783ZM4.39828 11.0526C4.36847 11.0803 4.31021 11.0674 4.27067 11.0238C4.22979 10.9802 4.22212 10.9219 4.25235 10.8939C4.28309 10.8663 4.3396 10.8792 4.38058 10.9228C4.42146 10.9669 4.42943 11.0247 4.39828 11.0526ZM4.60919 11.4036C4.5709 11.4302 4.50828 11.4053 4.46957 11.3497C4.43127 11.2941 4.43127 11.2275 4.4704 11.2008C4.50921 11.1741 4.5709 11.1981 4.61013 11.2533C4.64831 11.3098 4.64831 11.3764 4.60919 11.4036ZM4.96589 11.8101C4.93163 11.8479 4.85866 11.8377 4.80526 11.7862C4.75061 11.7358 4.73539 11.6643 4.76976 11.6265C4.80443 11.5886 4.87781 11.5993 4.93163 11.6504C4.98586 11.7007 5.00242 11.7727 4.96589 11.8101ZM5.42688 11.9473C5.41177 11.9963 5.34149 12.0186 5.2707 11.9978C5.20001 11.9763 5.15375 11.919 5.16803 11.8695C5.18273 11.8203 5.25331 11.7971 5.32463 11.8193C5.39521 11.8406 5.44158 11.8976 5.42688 11.9473ZM5.95151 12.0056C5.95327 12.0571 5.89324 12.0998 5.81893 12.1007C5.74421 12.1024 5.68376 12.0607 5.68293 12.01C5.68293 11.9579 5.74162 11.9156 5.81634 11.9144C5.89066 11.9129 5.95151 11.9543 5.95151 12.0056ZM6.46688 11.9858C6.47581 12.0361 6.42419 12.0877 6.35038 12.1015C6.27781 12.1147 6.21064 12.0837 6.20143 12.0338C6.19243 11.9823 6.245 11.9306 6.31744 11.9172C6.39138 11.9044 6.4575 11.9347 6.46688 11.9858Z" fill="#161614"/>
</svg>
