<svg width="143" height="53" viewBox="0 0 143 53" fill="none" xmlns="http://www.w3.org/2000/svg">
<path d="M47.7832 40.0999C48.1299 40.0999 48.3965 40.2732 48.5832 40.6199C48.7699 40.9666 48.8632 41.4066 48.8632 41.9399C48.8632 43.2199 48.4765 43.9799 47.7032 44.2199C46.1032 44.7799 44.3432 45.0999 42.4232 45.1799C41.9165 47.4199 40.9165 49.2199 39.4232 50.5799C37.9299 51.9132 36.2365 52.5799 34.3432 52.5799C32.7432 52.5799 31.3699 52.1932 30.2232 51.4199C29.1032 50.6466 28.2499 49.6199 27.6632 48.3399C27.0765 47.0599 26.7832 45.6732 26.7832 44.1799C26.7832 42.1532 27.1699 40.3532 27.9432 38.7799C28.7165 37.1799 29.7832 35.9399 31.1432 35.0599C32.5032 34.1532 34.0099 33.6999 35.6632 33.6999C37.6899 33.6999 39.3165 34.4066 40.5432 35.8199C41.7965 37.2066 42.5299 38.9266 42.7432 40.9799C43.9965 40.8999 45.4899 40.6332 47.2232 40.1799C47.4365 40.1266 47.6232 40.0999 47.7832 40.0999ZM34.6632 48.3399C35.5165 48.3399 36.2499 47.9932 36.8632 47.2999C37.5032 46.6066 37.9299 45.6066 38.1432 44.2999C37.3165 43.7399 36.6765 43.0066 36.2232 42.0999C35.7965 41.1932 35.5832 40.2332 35.5832 39.2199C35.5832 38.7932 35.6232 38.3666 35.7032 37.9399H35.5032C34.4365 37.9399 33.5432 38.4599 32.8232 39.4999C32.1299 40.5132 31.7832 41.9532 31.7832 43.8199C31.7832 45.2866 32.0632 46.4066 32.6232 47.1799C33.2099 47.9532 33.8899 48.3399 34.6632 48.3399Z" fill="#7C3AED"/>
<path d="M60.5901 43.4599C60.9367 43.4599 61.2034 43.6199 61.3901 43.9399C61.6034 44.2599 61.7101 44.6999 61.7101 45.2599C61.7101 46.3266 61.4567 47.1532 60.9501 47.7399C59.8034 49.1532 58.5501 50.3132 57.1901 51.2199C55.8567 52.1266 54.3367 52.5799 52.6301 52.5799C50.2834 52.5799 48.5367 51.5132 47.3901 49.3799C46.2701 47.2466 45.7101 44.4866 45.7101 41.0999C45.7101 37.8466 46.1234 34.1399 46.9501 29.9799C47.8034 25.8199 49.0434 22.2466 50.6701 19.2599C52.3234 16.2732 54.2834 14.7799 56.5501 14.7799C57.8301 14.7799 58.8301 15.3799 59.5501 16.5799C60.2967 17.7532 60.6701 19.4466 60.6701 21.6599C60.6701 24.8332 59.7901 28.5132 58.0301 32.6999C56.2701 36.8866 53.8834 41.0332 50.8701 45.1399C51.0567 46.2332 51.3634 47.0199 51.7901 47.4999C52.2167 47.9532 52.7767 48.1799 53.4701 48.1799C54.5634 48.1799 55.5234 47.8732 56.3501 47.2599C57.1767 46.6199 58.2301 45.5399 59.5101 44.0199C59.8301 43.6466 60.1901 43.4599 60.5901 43.4599ZM55.6701 18.7399C55.0567 18.7399 54.3634 19.8466 53.5901 22.0599C52.8167 24.2732 52.1367 27.0199 51.5501 30.2999C50.9634 33.5799 50.6434 36.7266 50.5901 39.7399C52.4834 36.6199 53.9901 33.4999 55.1101 30.3799C56.2301 27.2332 56.7901 24.3666 56.7901 21.7799C56.7901 19.7532 56.4167 18.7399 55.6701 18.7399Z" fill="#7C3AED"/>
<path d="M73.637 43.4599C73.9836 43.4599 74.2503 43.6199 74.437 43.9399C74.6503 44.2599 74.757 44.6999 74.757 45.2599C74.757 46.3266 74.5036 47.1532 73.997 47.7399C72.8503 49.1532 71.597 50.3132 70.237 51.2199C68.9036 52.1266 67.3836 52.5799 65.677 52.5799C63.3303 52.5799 61.5836 51.5132 60.437 49.3799C59.317 47.2466 58.757 44.4866 58.757 41.0999C58.757 37.8466 59.1703 34.1399 59.997 29.9799C60.8503 25.8199 62.0903 22.2466 63.717 19.2599C65.3703 16.2732 67.3303 14.7799 69.597 14.7799C70.877 14.7799 71.877 15.3799 72.597 16.5799C73.3436 17.7532 73.717 19.4466 73.717 21.6599C73.717 24.8332 72.837 28.5132 71.077 32.6999C69.317 36.8866 66.9303 41.0332 63.917 45.1399C64.1036 46.2332 64.4103 47.0199 64.837 47.4999C65.2636 47.9532 65.8236 48.1799 66.517 48.1799C67.6103 48.1799 68.5703 47.8732 69.397 47.2599C70.2236 46.6199 71.277 45.5399 72.557 44.0199C72.877 43.6466 73.237 43.4599 73.637 43.4599ZM68.717 18.7399C68.1036 18.7399 67.4103 19.8466 66.637 22.0599C65.8636 24.2732 65.1836 27.0199 64.597 30.2999C64.0103 33.5799 63.6903 36.7266 63.637 39.7399C65.5303 36.6199 67.037 33.4999 68.157 30.3799C69.277 27.2332 69.837 24.3666 69.837 21.7799C69.837 19.7532 69.4636 18.7399 68.717 18.7399Z" fill="#7C3AED"/>
<path d="M76.0532 52.5799C74.3999 52.5799 73.0799 51.9799 72.0932 50.7799C71.1065 49.5799 70.6132 48.0066 70.6132 46.0599C70.6132 43.9266 71.1065 41.9132 72.0932 40.0199C73.0799 38.0999 74.3865 36.5666 76.0132 35.4199C77.6665 34.2466 79.4132 33.6599 81.2532 33.6599C81.8399 33.6599 82.2265 33.7799 82.4132 34.0199C82.6265 34.2332 82.7999 34.6332 82.9332 35.2199C83.4932 35.1132 84.0799 35.0599 84.6932 35.0599C85.9999 35.0599 86.6532 35.5266 86.6532 36.4599C86.6532 37.0199 86.4532 38.3532 86.0532 40.4599C85.4399 43.5266 85.1332 45.6599 85.1332 46.8599C85.1332 47.2599 85.2265 47.5799 85.4132 47.8199C85.6265 48.0599 85.8932 48.1799 86.2132 48.1799C86.7199 48.1799 87.3332 47.8599 88.0532 47.2199C88.7732 46.5532 89.7465 45.4866 90.9732 44.0199C91.2932 43.6466 91.6532 43.4599 92.0532 43.4599C92.3999 43.4599 92.6665 43.6199 92.8532 43.9399C93.0665 44.2599 93.1732 44.6999 93.1732 45.2599C93.1732 46.3266 92.9199 47.1532 92.4132 47.7399C91.3199 49.0999 90.1599 50.2466 88.9332 51.1799C87.7065 52.1132 86.5199 52.5799 85.3732 52.5799C84.4932 52.5799 83.6799 52.2866 82.9332 51.6999C82.2132 51.0866 81.6665 50.2599 81.2932 49.2199C79.9065 51.4599 78.1599 52.5799 76.0532 52.5799ZM77.4932 48.5399C78.0799 48.5399 78.6399 48.1932 79.1732 47.4999C79.7065 46.8066 80.0932 45.8866 80.3332 44.7399L81.8132 37.3799C80.6932 37.4066 79.6532 37.8332 78.6932 38.6599C77.7599 39.4599 77.0132 40.5266 76.4532 41.8599C75.8932 43.1932 75.6132 44.6066 75.6132 46.0999C75.6132 46.9266 75.7732 47.5399 76.0932 47.9399C76.4399 48.3399 76.9065 48.5399 77.4932 48.5399Z" fill="#7C3AED"/>
<path d="M97.8423 52.5799C95.1756 52.5799 93.2289 51.5532 92.0023 49.4999C90.8023 47.4466 90.2023 44.4732 90.2023 40.5799C90.2023 37.1399 90.6289 33.4066 91.4823 29.3799C92.3356 25.3266 93.5756 21.8866 95.2023 19.0599C96.8556 16.2066 98.8156 14.7799 101.082 14.7799C102.309 14.7799 103.296 15.3132 104.042 16.3799C104.789 17.4199 105.162 18.7799 105.162 20.4599C105.162 22.6466 104.749 24.8199 103.922 26.9799C103.096 29.1399 101.722 31.4066 99.8023 33.7799C101.109 33.8866 102.242 34.3266 103.202 35.0999C104.189 35.8732 104.936 36.8732 105.442 38.0999C105.976 39.3266 106.242 40.6599 106.242 42.0999C106.242 44.0999 105.842 45.8999 105.042 47.4999C104.269 49.0999 103.242 50.3532 101.962 51.2599C100.682 52.1399 99.3089 52.5799 97.8423 52.5799ZM95.4823 36.4999C97.2423 33.2732 98.6423 30.4332 99.6823 27.9799C100.749 25.4999 101.282 23.2999 101.282 21.3799C101.282 20.5266 101.176 19.8732 100.962 19.4199C100.776 18.9666 100.509 18.7399 100.162 18.7399C99.6289 18.7399 99.0423 19.5399 98.4023 21.1399C97.7889 22.7132 97.2156 24.8599 96.6823 27.5799C96.1489 30.2999 95.7489 33.2732 95.4823 36.4999ZM98.0023 48.2599C98.9089 48.2599 99.6689 47.7666 100.282 46.7799C100.922 45.7932 101.242 44.3532 101.242 42.4599C101.242 40.9932 100.976 39.8866 100.442 39.1399C99.9089 38.3932 99.2689 38.0199 98.5223 38.0199C97.5889 38.0199 96.8023 38.4999 96.1623 39.4599C95.5223 40.4199 95.2023 41.8199 95.2023 43.6599C95.2023 45.2599 95.4689 46.4332 96.0023 47.1799C96.5356 47.8999 97.2023 48.2599 98.0023 48.2599Z" fill="#7C3AED"/>
<path d="M113.082 20.4599C111.402 20.4599 110.142 20.0799 109.302 19.3199C108.462 18.5199 108.042 17.4199 108.042 16.0199C108.042 14.6199 108.582 13.4599 109.662 12.5399C110.782 11.5799 112.162 11.0999 113.802 11.0999C115.282 11.0999 116.482 11.4599 117.402 12.1799C118.322 12.8999 118.782 13.9199 118.782 15.2399C118.782 16.8399 118.262 18.1199 117.222 19.0799C116.182 19.9999 114.802 20.4599 113.082 20.4599ZM112.602 52.6799C110.002 52.6799 108.102 51.7599 106.902 49.9199C105.742 48.0799 105.162 45.6399 105.162 42.5999C105.162 40.7999 105.382 38.4999 105.822 35.6999C106.302 32.8599 106.902 30.2199 107.622 27.7799C107.982 26.4999 108.462 25.6199 109.062 25.1399C109.662 24.6599 110.622 24.4199 111.942 24.4199C113.982 24.4199 115.002 25.0999 115.002 26.4599C115.002 27.4599 114.622 29.7799 113.862 33.4199C112.902 37.8199 112.422 40.7999 112.422 42.3599C112.422 43.5599 112.582 44.4799 112.902 45.1199C113.222 45.7599 113.762 46.0799 114.522 46.0799C115.242 46.0799 116.142 45.5799 117.222 44.5799C118.302 43.5799 119.742 41.9999 121.542 39.8399C122.022 39.2799 122.562 38.9999 123.162 38.9999C123.682 38.9999 124.082 39.2399 124.362 39.7199C124.682 40.1999 124.842 40.8599 124.842 41.6999C124.842 43.2999 124.462 44.5399 123.702 45.4199C119.742 50.2599 116.042 52.6799 112.602 52.6799Z" fill="#7C3AED"/>
<path d="M128.412 30.12C128.332 32.12 128.292 33.68 128.292 34.8C128.292 37.68 128.432 39.94 128.712 41.58C129.032 43.18 129.532 44.34 130.212 45.06C130.932 45.74 131.912 46.08 133.152 46.08C133.792 46.08 134.552 45.88 135.432 45.48C136.312 45.08 137.112 44.56 137.832 43.92C138.272 43.52 138.712 43.32 139.152 43.32C139.632 43.32 140.012 43.6 140.292 44.16C140.612 44.68 140.772 45.32 140.772 46.08C140.772 46.84 140.612 47.58 140.292 48.3C140.012 49.02 139.572 49.62 138.972 50.1C136.892 51.82 134.532 52.68 131.892 52.68C128.092 52.68 125.312 51.1 123.552 47.94C121.792 44.74 120.912 40.58 120.912 35.46C120.912 33.7 120.972 31.92 121.092 30.12H118.752C117.552 30.12 116.732 29.9 116.292 29.46C115.892 29.02 115.692 28.32 115.692 27.36C115.692 25.12 116.592 24 118.392 24H121.812C122.492 19.6 123.532 15.58 124.932 11.94C126.332 8.3 128.012 5.4 129.972 3.24C131.972 1.08 134.112 0 136.392 0C138.072 0 139.392 0.74 140.352 2.22C141.312 3.7 141.792 5.56 141.792 7.8C141.792 14 139.192 19.4 133.992 24H140.712C141.352 24 141.812 24.14 142.092 24.42C142.372 24.7 142.512 25.22 142.512 25.98C142.512 28.74 140.252 30.12 135.732 30.12H128.412ZM134.772 5.76C134.172 5.76 133.492 6.52 132.732 8.04C132.012 9.52 131.312 11.6 130.632 14.28C129.992 16.92 129.452 19.86 129.012 23.1C131.372 21.06 133.132 18.78 134.292 16.26C135.492 13.7 136.092 11.38 136.092 9.3C136.092 6.94 135.652 5.76 134.772 5.76Z" fill="#7C3AED"/>
<path d="M43.4631 4.39872C16 7.37988 -1.96859 39.1022 10.2621 45.4598C14.5446 47.6861 18.9666 48.02 23.102 44.8562C27.375 41.5876 31 30.8799 31 29.3799C32 24.556 31.9208 22.8799 32 20.8799C32.1215 17.814 29.5791 16.3799 25.5 19.8799C21.4209 23.3799 13.6319 30.9721 12.6767 35.8014C12.2138 38.1419 14.4877 39.726 16.9023 39.4233C16.9023 39.4233 18.1096 39.4233 19.9206 37.0087C21.7316 34.594 22.056 32.1737 22.72 30.289C23.3287 28.5594 24.3774 25.0772 25.194 23.6252C26.0983 22.0167 28.1187 22.4604 27.9136 24.556C27.6166 27.5688 25.8756 34.6558 24.3936 37.4753C23.9469 38.3258 22.9389 41.8379 19.3169 43.0452C16.2987 44.2525 13.3115 43.0505 11.4908 41.6925C7.92494 39.0321 7.75489 36.7718 9.65387 32.8976C12.8189 26.438 19.9206 19.8799 23.102 17.3799C26.2834 14.8799 30 12.3799 33.5 14.3799C36.5 15.3799 36.1573 23.7289 35.5 27.3799C33.9128 36.1937 31.9626 40.8923 26.1725 47.7698C19.3027 55.9291 4.50218 50.4546 1.06727 41.4203C-0.549637 37.1678 -0.152834 35.2192 1.08481 30.8646C2.32246 26.5101 10.4645 13.8799 19.3169 8.02036C26.8009 3.06708 33.8046 1.98354 41.0485 1.37988C43.4631 1.38 44.1261 4.32676 43.4631 4.39872Z" fill="#7C3AED"/>
</svg>
